{"title":"Farscape_S02_E01","uid":5730904,"size":859131606,"categoryP":"other","categoryS":"other","magnet":"?xt=urn:btih:4c29dcfeb770229df083296988af624700df6c56&amp;dn=Farscape_S02_E01&amp;tr=udp%3A%2F%2Ftracker.openbittorrent.com%3A80&amp;tr=udp%3A%2F%2Fopen.demonii.com%3A1337&amp;tr=udp%3A%2F%2Ftracker.coppersurfer.tk%3A6969&amp;tr=udp%3A%2F%2Fexodus.desync.com%3A6969","seeders":0,"leechers":1,"uploader":null,"files":5,"time":1280642126,"description":"This was ripped from my ADV box set and compressed at the highest bitrate and converted to U.S. standard 720x480 16x9. I will upload all of season two if there are enough people interested. Download the sample and let me know.                                               \nComplete name                    : Farscape_S02_E01.avi\nFormat                           : AVI\nFormat/Info                      : Audio Video Interleave\nFile size                        : 746 MiB\nDuration                         : 1h 32mn\nOverall bit rate                 : 1 132 Kbps\nMovie name                       : Farscape_S02_E01.mpg\nDirector                         : created.with.SUPER(C).v2010.bld.37\nWriting application              : SUPER(C)   \n\nVideo\nID                               : 0\nFormat                           : MPEG-4 Visual\nFormat profile                   : Simple@L3\nFormat settings, BVOP            : No\nFormat settings, QPel            : No\nFormat settings, GMC             : No warppoints\nFormat settings, Matrix          : Default (H.263)\nCodec ID                         : XVID\nCodec ID/Hint                    : XviD\nDuration                         : 46mn 2s\nBit rate                         : 2 123 Kbps\nWidth                            : 720 pixels\nHeight                           : 480 pixels\nDisplay aspect ratio             : 16:9\nFrame rate                       : 29.970 fps\nStandard                         : NTSC\nResolution                       : 8 bits\nColorimetry                      : 4:2:0\nScan type                        : Progressive\nBits/(Pixel*Frame)               : 0.205\nStream size                      : 699 MiB (94%)\nWriting library                  : XviD 1.1.2 (UTC 2006-11-01)\n\nAudio\nID                               : 1\nFormat                           : MPEG Audio\nFormat version                   : Version 2\nFormat profile                   : Layer 3\nMode                             : Joint stereo\nFormat_Settings_ModeExtension    : MS Stereo\nCodec ID                         : 55\nCodec ID/Hint                    : MP3\nDuration                         : 1h 32mn\nBit rate mode                    : Constant\nBit rate                         : 128 Kbps\nChannel(s)                       : 2 channels\nSampling rate                    : 22.05 KHz\nStream size                      : 42.2 MiB (6%)\nAlignment                        : Aligned on interleaves\nInterleave, duration             : 26 ms (0.78 video frame)\nWriting library                  : LAME3.98","torrent":{"xt":"urn:btih:4c29dcfeb770229df083296988af624700df6c56","amp;dn":"Farscape_S02_E01","amp;tr":["udp%3A%2F%2Ftracker.openbittorrent.com%3A80","udp%3A%2F%2Fopen.demonii.com%3A1337","udp%3A%2F%2Ftracker.coppersurfer.tk%3A6969","udp%3A%2F%2Fexodus.desync.com%3A6969"],"infoHash":"4c29dcfeb770229df083296988af624700df6c56","infoHashBuffer":{"type":"Buffer","data":[76,41,220,254,183,112,34,157,240,131,41,105,136,175,98,71,0,223,108,86]},"announce":[],"urlList":[]}}